<?xml version="1.0" standalone="no"?>
<!DOCTYPE svg PUBLIC "-//W3C//DTD SVG 20010904//EN"
 "http://www.w3.org/TR/2001/REC-SVG-20010904/DTD/svg10.dtd">
<svg version="1.0" xmlns="http://www.w3.org/2000/svg"
 width="512.000000pt" height="512.000000pt" viewBox="0 0 512.000000 512.000000"
 preserveAspectRatio="xMidYMid meet">

<g transform="translate(0.000000,512.000000) scale(0.100000,-0.100000)"
fill="#000000" stroke="none">
<path d="M2480 4714 c-14 -3 -65 -12 -115 -20 -460 -75 -788 -295 -891 -596
-26 -73 -29 -98 -30 -213 -1 -87 -7 -148 -18 -184 -33 -112 -13 -237 54 -331
34 -47 137 -120 170 -120 39 0 82 39 141 127 115 170 259 229 599 243 302 13
410 46 521 161 33 34 61 60 63 58 2 -2 20 -39 39 -81 28 -61 55 -98 125 -171
65 -69 98 -113 121 -163 65 -139 75 -156 102 -170 71 -36 155 -2 244 100 71
80 99 146 103 242 3 68 0 91 -21 145 -19 48 -26 91 -31 174 -10 188 -60 325
-161 433 -31 33 -77 74 -104 91 -47 31 -176 81 -206 81 -9 0 -39 19 -68 42
-67 53 -192 111 -287 133 -72 17 -297 29 -350 19z"/>
<path d="M581 1575 c-51 -18 -96 -37 -100 -42 -3 -5 -32 -20 -65 -33 -75 -30
-164 -97 -217 -163 -56 -69 -116 -196 -134 -282 -18 -86 -20 -256 -3 -273 9
-9 170 -12 663 -12 l652 0 -8 -47 c-4 -27 -8 -103 -8 -170 -1 -115 0 -123 21
-137 20 -14 149 -16 1184 -16 1109 0 1162 1 1177 18 9 10 20 32 23 49 9 48
-14 291 -37 379 -27 107 -106 265 -174 347 -96 116 -239 219 -360 257 -21 7
-46 21 -55 31 -8 9 -75 37 -148 61 -120 39 -135 41 -145 27 -7 -9 -72 -271
-146 -583 -74 -311 -138 -566 -141 -566 -3 0 -67 255 -141 566 -74 312 -139
574 -146 583 -10 14 -25 12 -145 -27 -73 -24 -140 -52 -149 -63 -9 -10 -46
-30 -83 -43 -61 -23 -162 -84 -229 -138 -28 -23 -29 -23 -40 -3 -20 36 -119
134 -166 164 -25 16 -66 37 -91 47 -25 9 -52 23 -60 29 -8 7 -55 27 -105 44
-71 24 -93 28 -102 18 -7 -7 -53 -185 -103 -397 -99 -417 -100 -423 -105 -418
-3 3 -195 804 -195 813 0 14 -40 7 -119 -20z"/>
</g>
</svg>
