<svg xmlns="http://www.w3.org/2000/svg" xmlns:xlink="http://www.w3.org/1999/xlink" width="500" zoomAndPan="magnify" viewBox="0 0 375 374.999991" height="500" preserveAspectRatio="xMidYMid meet" version="1.0"><defs><g/><clipPath id="00ad22d307"><path d="M 71.726562 98.410156 L 234 98.410156 L 234 219.160156 L 71.726562 219.160156 Z M 71.726562 98.410156 " clip-rule="nonzero"/></clipPath><clipPath id="d717cb4e0f"><path d="M 193 98.410156 L 303.476562 98.410156 L 303.476562 219.160156 L 193 219.160156 Z M 193 98.410156 " clip-rule="nonzero"/></clipPath></defs><g clip-path="url(#00ad22d307)"><path fill="#4361ee" d="M 155.816406 98.410156 L 71.769531 219.128906 L 159.085938 219.128906 L 184.472656 182.664062 L 176.042969 169.136719 L 151.4375 204.480469 L 99.8125 204.480469 L 155.359375 124.699219 L 216.253906 219.128906 L 233.976562 219.128906 Z M 155.816406 98.410156 " fill-opacity="1" fill-rule="nonzero"/></g><g clip-path="url(#d717cb4e0f)"><path fill="#f72585" d="M 225.28125 98.410156 L 193.863281 143.542969 L 202.441406 156.847656 L 224.824219 124.699219 L 285.777344 219.128906 L 303.230469 219.128906 Z M 225.28125 98.410156 " fill-opacity="1" fill-rule="nonzero"/></g><g fill="#010101" fill-opacity="1"><g transform="translate(75.830595, 244.817094)"><g><path d="M 0.609375 -5.359375 C 0.609375 -2.21875 3.0625 0.234375 6.28125 0.234375 C 9.203125 0.234375 10.578125 -1.453125 10.578125 -1.453125 L 8.734375 -4.375 C 8.734375 -4.375 7.8125 -3.53125 6.75 -3.53125 C 5.671875 -3.53125 4.90625 -4.296875 4.90625 -5.359375 C 4.90625 -6.4375 5.671875 -7.203125 6.75 -7.203125 C 7.8125 -7.203125 8.734375 -6.359375 8.734375 -6.359375 L 10.578125 -9.28125 C 10.578125 -9.28125 9.203125 -10.953125 6.28125 -10.953125 C 3.0625 -10.953125 0.609375 -8.5 0.609375 -5.359375 Z M 0.609375 -5.359375 "/></g></g></g><g fill="#010101" fill-opacity="1"><g transform="translate(88.774714, 244.817094)"><g><path d="M 4.90625 -10.734375 L 0.921875 -10.734375 L 0.921875 0 L 4.90625 0 L 4.90625 -3.671875 L 7.359375 -3.671875 L 7.359375 0 L 11.34375 0 L 11.34375 -10.734375 L 7.359375 -10.734375 L 7.359375 -7.046875 L 4.90625 -7.046875 Z M 4.90625 -10.734375 "/></g></g></g><g fill="#010101" fill-opacity="1"><g transform="translate(103.09732, 244.817094)"><g><path d="M 8.5 -10.734375 L 3.296875 -10.734375 L 0.15625 0 L 4.59375 0 L 4.90625 -1.53125 L 6.890625 -1.53125 L 7.203125 0 L 11.65625 0 C 11.65625 0 8.515625 -10.671875 8.5 -10.734375 Z M 5.359375 -3.984375 L 5.90625 -6.75 L 6.4375 -3.984375 Z M 5.359375 -3.984375 "/></g></g></g><g fill="#010101" fill-opacity="1"><g transform="translate(116.960434, 244.817094)"><g><path d="M 9.96875 0 L 11.796875 -5.984375 L 11.796875 0 L 15.78125 0 L 15.78125 -10.734375 L 10.109375 -10.734375 L 8.359375 -4.90625 L 6.59375 -10.734375 L 0.921875 -10.734375 L 0.921875 0 L 4.90625 0 L 4.90625 -5.984375 L 6.75 0 Z M 9.96875 0 "/></g></g></g><g fill="#010101" fill-opacity="1"><g transform="translate(135.724824, 244.817094)"><g><path d="M 8.28125 -5.671875 C 8.28125 -5.671875 10.265625 -6.046875 10.265625 -7.890625 C 10.265625 -9.5 8.890625 -10.890625 5.4375 -10.890625 C 3.0625 -10.890625 0.921875 -10.734375 0.921875 -10.734375 L 0.921875 0 C 0.921875 0 3.0625 0.15625 5.515625 0.15625 C 9.34375 0.15625 10.734375 -1.21875 10.734375 -2.90625 C 10.734375 -5.21875 8.28125 -5.59375 8.28125 -5.59375 Z M 4.90625 -8.125 L 5.4375 -8.125 C 5.984375 -8.125 6.28125 -7.8125 6.28125 -7.4375 C 6.28125 -7.046875 5.984375 -6.75 5.4375 -6.75 L 4.90625 -6.75 Z M 5.515625 -2.609375 C 5.21875 -2.609375 4.90625 -2.609375 4.90625 -2.609375 L 4.90625 -4.140625 L 5.515625 -4.140625 C 6.125 -4.140625 6.4375 -3.828125 6.4375 -3.375 C 6.4375 -2.90625 6.125 -2.609375 5.515625 -2.609375 Z M 5.515625 -2.609375 "/></g></g></g><g fill="#010101" fill-opacity="1"><g transform="translate(148.975279, 244.817094)"><g><path d="M 4.90625 -3.828125 L 8.890625 -3.828125 L 8.890625 -6.890625 L 4.90625 -6.890625 L 4.90625 -7.671875 L 9.203125 -7.671875 L 9.203125 -10.734375 L 0.921875 -10.734375 L 0.921875 0 L 9.5 0 L 9.5 -3.0625 L 4.90625 -3.0625 Z M 4.90625 -3.828125 "/></g></g></g><g fill="#010101" fill-opacity="1"><g transform="translate(161.000415, 244.817094)"><g><path d="M 11.5 0 L 8.890625 -4.140625 C 8.890625 -4.140625 10.265625 -4.90625 10.265625 -7.125 C 10.265625 -9.34375 8.734375 -10.890625 5.359375 -10.890625 C 3.0625 -10.890625 0.921875 -10.734375 0.921875 -10.734375 L 0.921875 0 L 4.90625 0 L 4.90625 -3.53125 L 5.0625 -3.53125 L 6.890625 0 Z M 4.90625 -6.28125 L 4.90625 -7.96875 L 5.359375 -7.96875 C 5.90625 -7.96875 6.28125 -7.59375 6.28125 -7.125 C 6.28125 -6.671875 5.90625 -6.28125 5.359375 -6.28125 Z M 4.90625 -6.28125 "/></g></g></g><g fill="#000000" fill-opacity="1"><g transform="translate(107.572761, 273.640499)"><g><path d="M 5.875 -4.875 C 5.875 -4.144531 5.578125 -3.644531 4.984375 -3.375 C 5.523438 -3.195312 5.894531 -2.867188 6.09375 -2.390625 C 6.164062 -2.203125 6.203125 -1.984375 6.203125 -1.734375 C 6.203125 -0.941406 5.78125 -0.410156 4.9375 -0.140625 C 4.65625 -0.046875 4.328125 0 3.953125 0 L 0.8125 0 L 0.8125 -6.625 L 3.78125 -6.625 C 4.488281 -6.625 5.03125 -6.429688 5.40625 -6.046875 C 5.71875 -5.734375 5.875 -5.34375 5.875 -4.875 Z M 1.5625 -3.65625 L 3.78125 -3.65625 C 4.394531 -3.65625 4.804688 -3.867188 5.015625 -4.296875 C 5.085938 -4.441406 5.125 -4.597656 5.125 -4.765625 C 5.125 -4.929688 5.097656 -5.078125 5.046875 -5.203125 C 5.003906 -5.335938 4.929688 -5.457031 4.828125 -5.5625 C 4.609375 -5.789062 4.285156 -5.90625 3.859375 -5.90625 L 1.5625 -5.90625 Z M 4.03125 -0.703125 C 4.488281 -0.703125 4.835938 -0.796875 5.078125 -0.984375 C 5.328125 -1.179688 5.453125 -1.453125 5.453125 -1.796875 C 5.453125 -2.128906 5.332031 -2.40625 5.09375 -2.625 C 4.832031 -2.863281 4.453125 -2.984375 3.953125 -2.984375 L 1.5625 -2.984375 L 1.5625 -0.703125 Z M 4.03125 -0.703125 "/></g></g></g><g fill="#000000" fill-opacity="1"><g transform="translate(118.500135, 273.640499)"><g><path d="M 6.359375 -6.625 L 6.359375 -2.84375 C 6.359375 -1.96875 6.097656 -1.257812 5.578125 -0.71875 C 5.054688 -0.1875 4.378906 0.078125 3.546875 0.078125 C 2.710938 0.078125 2.035156 -0.1875 1.515625 -0.71875 C 0.992188 -1.257812 0.734375 -1.96875 0.734375 -2.84375 L 0.734375 -6.625 L 1.484375 -6.625 L 1.484375 -2.828125 C 1.484375 -2.117188 1.695312 -1.5625 2.125 -1.15625 C 2.488281 -0.820312 2.960938 -0.65625 3.546875 -0.65625 C 4.117188 -0.65625 4.59375 -0.820312 4.96875 -1.15625 C 5.394531 -1.550781 5.609375 -2.109375 5.609375 -2.828125 L 5.609375 -6.625 Z M 6.359375 -6.625 "/></g></g></g><g fill="#000000" fill-opacity="1"><g transform="translate(129.897324, 273.640499)"><g><path d="M 1.5625 -5.59375 C 1.4375 -5.488281 1.351562 -5.367188 1.3125 -5.234375 C 1.269531 -5.109375 1.25 -4.96875 1.25 -4.8125 C 1.25 -4.664062 1.3125 -4.523438 1.4375 -4.390625 C 1.570312 -4.265625 1.742188 -4.160156 1.953125 -4.078125 C 2.171875 -3.992188 2.414062 -3.914062 2.6875 -3.84375 C 2.957031 -3.78125 3.234375 -3.710938 3.515625 -3.640625 C 3.804688 -3.578125 4.085938 -3.5 4.359375 -3.40625 C 4.628906 -3.3125 4.875 -3.195312 5.09375 -3.0625 C 5.5625 -2.757812 5.796875 -2.347656 5.796875 -1.828125 C 5.796875 -1.210938 5.5625 -0.738281 5.09375 -0.40625 C 4.632812 -0.0820312 4 0.078125 3.1875 0.078125 C 2.257812 0.078125 1.550781 -0.113281 1.0625 -0.5 C 0.625 -0.84375 0.375 -1.335938 0.3125 -1.984375 L 1.09375 -1.984375 C 1.125 -1.523438 1.347656 -1.175781 1.765625 -0.9375 C 2.117188 -0.726562 2.59375 -0.625 3.1875 -0.625 C 4.425781 -0.625 5.046875 -1.015625 5.046875 -1.796875 C 5.046875 -2.066406 4.929688 -2.273438 4.703125 -2.421875 C 4.484375 -2.578125 4.207031 -2.703125 3.875 -2.796875 C 3.539062 -2.898438 3.175781 -2.992188 2.78125 -3.078125 C 2.394531 -3.171875 2.03125 -3.285156 1.6875 -3.421875 C 1.351562 -3.554688 1.070312 -3.734375 0.84375 -3.953125 C 0.625 -4.179688 0.515625 -4.488281 0.515625 -4.875 C 0.515625 -5.414062 0.722656 -5.851562 1.140625 -6.1875 C 1.554688 -6.53125 2.179688 -6.703125 3.015625 -6.703125 C 3.847656 -6.703125 4.492188 -6.507812 4.953125 -6.125 C 5.378906 -5.78125 5.601562 -5.34375 5.625 -4.8125 L 4.859375 -4.8125 C 4.796875 -5.351562 4.441406 -5.71875 3.796875 -5.90625 C 3.566406 -5.96875 3.285156 -6 2.953125 -6 C 2.617188 -6 2.335938 -5.957031 2.109375 -5.875 C 1.878906 -5.800781 1.695312 -5.707031 1.5625 -5.59375 Z M 1.5625 -5.59375 "/></g></g></g><g fill="#000000" fill-opacity="1"><g transform="translate(140.354886, 273.640499)"><g><path d="M 1.5625 0 L 0.8125 0 L 0.8125 -6.625 L 1.5625 -6.625 Z M 1.5625 0 "/></g></g></g><g fill="#000000" fill-opacity="1"><g transform="translate(147.033938, 273.640499)"><g><path d="M 6.515625 -6.625 L 6.515625 0 L 5.65625 0 L 1.5625 -5.59375 L 1.5625 0 L 0.8125 0 L 0.8125 -6.625 L 1.6875 -6.625 L 5.765625 -1.046875 L 5.765625 -6.625 Z M 6.515625 -6.625 "/></g></g></g><g fill="#000000" fill-opacity="1"><g transform="translate(158.671039, 273.640499)"><g><path d="M 1.5625 -5.90625 L 1.5625 -3.6875 L 5.234375 -3.6875 L 5.234375 -2.953125 L 1.5625 -2.953125 L 1.5625 -0.71875 L 5.6875 -0.71875 L 5.6875 0 L 0.8125 0 L 0.8125 -6.625 L 5.6875 -6.625 L 5.6875 -5.90625 Z M 1.5625 -5.90625 "/></g></g></g><g fill="#000000" fill-opacity="1"><g transform="translate(169.058629, 273.640499)"><g><path d="M 1.5625 -5.59375 C 1.4375 -5.488281 1.351562 -5.367188 1.3125 -5.234375 C 1.269531 -5.109375 1.25 -4.96875 1.25 -4.8125 C 1.25 -4.664062 1.3125 -4.523438 1.4375 -4.390625 C 1.570312 -4.265625 1.742188 -4.160156 1.953125 -4.078125 C 2.171875 -3.992188 2.414062 -3.914062 2.6875 -3.84375 C 2.957031 -3.78125 3.234375 -3.710938 3.515625 -3.640625 C 3.804688 -3.578125 4.085938 -3.5 4.359375 -3.40625 C 4.628906 -3.3125 4.875 -3.195312 5.09375 -3.0625 C 5.5625 -2.757812 5.796875 -2.347656 5.796875 -1.828125 C 5.796875 -1.210938 5.5625 -0.738281 5.09375 -0.40625 C 4.632812 -0.0820312 4 0.078125 3.1875 0.078125 C 2.257812 0.078125 1.550781 -0.113281 1.0625 -0.5 C 0.625 -0.84375 0.375 -1.335938 0.3125 -1.984375 L 1.09375 -1.984375 C 1.125 -1.523438 1.347656 -1.175781 1.765625 -0.9375 C 2.117188 -0.726562 2.59375 -0.625 3.1875 -0.625 C 4.425781 -0.625 5.046875 -1.015625 5.046875 -1.796875 C 5.046875 -2.066406 4.929688 -2.273438 4.703125 -2.421875 C 4.484375 -2.578125 4.207031 -2.703125 3.875 -2.796875 C 3.539062 -2.898438 3.175781 -2.992188 2.78125 -3.078125 C 2.394531 -3.171875 2.03125 -3.285156 1.6875 -3.421875 C 1.351562 -3.554688 1.070312 -3.734375 0.84375 -3.953125 C 0.625 -4.179688 0.515625 -4.488281 0.515625 -4.875 C 0.515625 -5.414062 0.722656 -5.851562 1.140625 -6.1875 C 1.554688 -6.53125 2.179688 -6.703125 3.015625 -6.703125 C 3.847656 -6.703125 4.492188 -6.507812 4.953125 -6.125 C 5.378906 -5.78125 5.601562 -5.34375 5.625 -4.8125 L 4.859375 -4.8125 C 4.796875 -5.351562 4.441406 -5.71875 3.796875 -5.90625 C 3.566406 -5.96875 3.285156 -6 2.953125 -6 C 2.617188 -6 2.335938 -5.957031 2.109375 -5.875 C 1.878906 -5.800781 1.695312 -5.707031 1.5625 -5.59375 Z M 1.5625 -5.59375 "/></g></g></g><g fill="#000000" fill-opacity="1"><g transform="translate(179.516188, 273.640499)"><g><path d="M 1.5625 -5.59375 C 1.4375 -5.488281 1.351562 -5.367188 1.3125 -5.234375 C 1.269531 -5.109375 1.25 -4.96875 1.25 -4.8125 C 1.25 -4.664062 1.3125 -4.523438 1.4375 -4.390625 C 1.570312 -4.265625 1.742188 -4.160156 1.953125 -4.078125 C 2.171875 -3.992188 2.414062 -3.914062 2.6875 -3.84375 C 2.957031 -3.78125 3.234375 -3.710938 3.515625 -3.640625 C 3.804688 -3.578125 4.085938 -3.5 4.359375 -3.40625 C 4.628906 -3.3125 4.875 -3.195312 5.09375 -3.0625 C 5.5625 -2.757812 5.796875 -2.347656 5.796875 -1.828125 C 5.796875 -1.210938 5.5625 -0.738281 5.09375 -0.40625 C 4.632812 -0.0820312 4 0.078125 3.1875 0.078125 C 2.257812 0.078125 1.550781 -0.113281 1.0625 -0.5 C 0.625 -0.84375 0.375 -1.335938 0.3125 -1.984375 L 1.09375 -1.984375 C 1.125 -1.523438 1.347656 -1.175781 1.765625 -0.9375 C 2.117188 -0.726562 2.59375 -0.625 3.1875 -0.625 C 4.425781 -0.625 5.046875 -1.015625 5.046875 -1.796875 C 5.046875 -2.066406 4.929688 -2.273438 4.703125 -2.421875 C 4.484375 -2.578125 4.207031 -2.703125 3.875 -2.796875 C 3.539062 -2.898438 3.175781 -2.992188 2.78125 -3.078125 C 2.394531 -3.171875 2.03125 -3.285156 1.6875 -3.421875 C 1.351562 -3.554688 1.070312 -3.734375 0.84375 -3.953125 C 0.625 -4.179688 0.515625 -4.488281 0.515625 -4.875 C 0.515625 -5.414062 0.722656 -5.851562 1.140625 -6.1875 C 1.554688 -6.53125 2.179688 -6.703125 3.015625 -6.703125 C 3.847656 -6.703125 4.492188 -6.507812 4.953125 -6.125 C 5.378906 -5.78125 5.601562 -5.34375 5.625 -4.8125 L 4.859375 -4.8125 C 4.796875 -5.351562 4.441406 -5.71875 3.796875 -5.90625 C 3.566406 -5.96875 3.285156 -6 2.953125 -6 C 2.617188 -6 2.335938 -5.957031 2.109375 -5.875 C 1.878906 -5.800781 1.695312 -5.707031 1.5625 -5.59375 Z M 1.5625 -5.59375 "/></g></g></g><g fill="#000000" fill-opacity="1"><g transform="translate(189.973747, 273.640499)"><g/></g></g><g fill="#000000" fill-opacity="1"><g transform="translate(196.412896, 273.640499)"><g><path d="M 1.5625 0 L 0.8125 0 L 0.8125 -6.625 L 3.796875 -6.625 C 4.492188 -6.625 5.046875 -6.429688 5.453125 -6.046875 C 5.859375 -5.648438 6.0625 -5.128906 6.0625 -4.484375 C 6.0625 -3.835938 5.859375 -3.320312 5.453125 -2.9375 C 5.046875 -2.550781 4.492188 -2.359375 3.796875 -2.359375 L 1.5625 -2.359375 Z M 1.5625 -5.90625 L 1.5625 -3.0625 L 3.734375 -3.0625 C 4.253906 -3.0625 4.644531 -3.1875 4.90625 -3.4375 C 5.175781 -3.6875 5.3125 -4.035156 5.3125 -4.484375 C 5.3125 -4.929688 5.175781 -5.28125 4.90625 -5.53125 C 4.644531 -5.78125 4.253906 -5.90625 3.734375 -5.90625 Z M 1.5625 -5.90625 "/></g></g></g><g fill="#000000" fill-opacity="1"><g transform="translate(207.000409, 273.640499)"><g><path d="M 6.359375 -6.625 L 6.359375 -2.84375 C 6.359375 -1.96875 6.097656 -1.257812 5.578125 -0.71875 C 5.054688 -0.1875 4.378906 0.078125 3.546875 0.078125 C 2.710938 0.078125 2.035156 -0.1875 1.515625 -0.71875 C 0.992188 -1.257812 0.734375 -1.96875 0.734375 -2.84375 L 0.734375 -6.625 L 1.484375 -6.625 L 1.484375 -2.828125 C 1.484375 -2.117188 1.695312 -1.5625 2.125 -1.15625 C 2.488281 -0.820312 2.960938 -0.65625 3.546875 -0.65625 C 4.117188 -0.65625 4.59375 -0.820312 4.96875 -1.15625 C 5.394531 -1.550781 5.609375 -2.109375 5.609375 -2.828125 L 5.609375 -6.625 Z M 6.359375 -6.625 "/></g></g></g><g fill="#000000" fill-opacity="1"><g transform="translate(218.397602, 273.640499)"><g><path d="M 1.5625 0 L 0.8125 0 L 0.8125 -6.625 L 3.984375 -6.625 C 4.648438 -6.625 5.1875 -6.4375 5.59375 -6.0625 C 6 -5.695312 6.203125 -5.191406 6.203125 -4.546875 C 6.203125 -3.722656 5.863281 -3.160156 5.1875 -2.859375 C 4.988281 -2.773438 4.796875 -2.710938 4.609375 -2.671875 L 6.34375 0 L 5.453125 0 L 3.859375 -2.546875 L 1.5625 -2.546875 Z M 1.5625 -3.25 L 3.84375 -3.25 C 4.550781 -3.25 5.039062 -3.46875 5.3125 -3.90625 C 5.40625 -4.070312 5.453125 -4.285156 5.453125 -4.546875 C 5.453125 -4.972656 5.304688 -5.304688 5.015625 -5.546875 C 4.734375 -5.785156 4.359375 -5.90625 3.890625 -5.90625 L 1.5625 -5.90625 Z M 1.5625 -3.25 "/></g></g></g><g fill="#000000" fill-opacity="1"><g transform="translate(229.394961, 273.640499)"><g><path d="M 1.5625 0 L 0.8125 0 L 0.8125 -6.625 L 3.796875 -6.625 C 4.492188 -6.625 5.046875 -6.429688 5.453125 -6.046875 C 5.859375 -5.648438 6.0625 -5.128906 6.0625 -4.484375 C 6.0625 -3.835938 5.859375 -3.320312 5.453125 -2.9375 C 5.046875 -2.550781 4.492188 -2.359375 3.796875 -2.359375 L 1.5625 -2.359375 Z M 1.5625 -5.90625 L 1.5625 -3.0625 L 3.734375 -3.0625 C 4.253906 -3.0625 4.644531 -3.1875 4.90625 -3.4375 C 5.175781 -3.6875 5.3125 -4.035156 5.3125 -4.484375 C 5.3125 -4.929688 5.175781 -5.28125 4.90625 -5.53125 C 4.644531 -5.78125 4.253906 -5.90625 3.734375 -5.90625 Z M 1.5625 -5.90625 "/></g></g></g><g fill="#000000" fill-opacity="1"><g transform="translate(239.982474, 273.640499)"><g><path d="M 3.75 -6.703125 C 4.738281 -6.703125 5.550781 -6.367188 6.1875 -5.703125 C 6.800781 -5.066406 7.109375 -4.269531 7.109375 -3.3125 C 7.109375 -2.351562 6.800781 -1.550781 6.1875 -0.90625 C 5.550781 -0.25 4.738281 0.078125 3.75 0.078125 C 2.757812 0.078125 1.945312 -0.25 1.3125 -0.90625 C 0.695312 -1.550781 0.390625 -2.351562 0.390625 -3.3125 C 0.390625 -4.269531 0.695312 -5.066406 1.3125 -5.703125 C 1.945312 -6.367188 2.757812 -6.703125 3.75 -6.703125 Z M 3.75 -0.65625 C 4.539062 -0.65625 5.175781 -0.910156 5.65625 -1.421875 C 6.125 -1.910156 6.359375 -2.539062 6.359375 -3.3125 C 6.359375 -4.070312 6.125 -4.703125 5.65625 -5.203125 C 5.175781 -5.710938 4.539062 -5.96875 3.75 -5.96875 C 2.957031 -5.96875 2.320312 -5.710938 1.84375 -5.203125 C 1.375 -4.703125 1.140625 -4.070312 1.140625 -3.3125 C 1.140625 -2.539062 1.375 -1.910156 1.84375 -1.421875 C 2.320312 -0.910156 2.957031 -0.65625 3.75 -0.65625 Z M 3.75 -0.65625 "/></g></g></g><g fill="#000000" fill-opacity="1"><g transform="translate(251.789514, 273.640499)"><g><path d="M 1.5625 -5.59375 C 1.4375 -5.488281 1.351562 -5.367188 1.3125 -5.234375 C 1.269531 -5.109375 1.25 -4.96875 1.25 -4.8125 C 1.25 -4.664062 1.3125 -4.523438 1.4375 -4.390625 C 1.570312 -4.265625 1.742188 -4.160156 1.953125 -4.078125 C 2.171875 -3.992188 2.414062 -3.914062 2.6875 -3.84375 C 2.957031 -3.78125 3.234375 -3.710938 3.515625 -3.640625 C 3.804688 -3.578125 4.085938 -3.5 4.359375 -3.40625 C 4.628906 -3.3125 4.875 -3.195312 5.09375 -3.0625 C 5.5625 -2.757812 5.796875 -2.347656 5.796875 -1.828125 C 5.796875 -1.210938 5.5625 -0.738281 5.09375 -0.40625 C 4.632812 -0.0820312 4 0.078125 3.1875 0.078125 C 2.257812 0.078125 1.550781 -0.113281 1.0625 -0.5 C 0.625 -0.84375 0.375 -1.335938 0.3125 -1.984375 L 1.09375 -1.984375 C 1.125 -1.523438 1.347656 -1.175781 1.765625 -0.9375 C 2.117188 -0.726562 2.59375 -0.625 3.1875 -0.625 C 4.425781 -0.625 5.046875 -1.015625 5.046875 -1.796875 C 5.046875 -2.066406 4.929688 -2.273438 4.703125 -2.421875 C 4.484375 -2.578125 4.207031 -2.703125 3.875 -2.796875 C 3.539062 -2.898438 3.175781 -2.992188 2.78125 -3.078125 C 2.394531 -3.171875 2.03125 -3.285156 1.6875 -3.421875 C 1.351562 -3.554688 1.070312 -3.734375 0.84375 -3.953125 C 0.625 -4.179688 0.515625 -4.488281 0.515625 -4.875 C 0.515625 -5.414062 0.722656 -5.851562 1.140625 -6.1875 C 1.554688 -6.53125 2.179688 -6.703125 3.015625 -6.703125 C 3.847656 -6.703125 4.492188 -6.507812 4.953125 -6.125 C 5.378906 -5.78125 5.601562 -5.34375 5.625 -4.8125 L 4.859375 -4.8125 C 4.796875 -5.351562 4.441406 -5.71875 3.796875 -5.90625 C 3.566406 -5.96875 3.285156 -6 2.953125 -6 C 2.617188 -6 2.335938 -5.957031 2.109375 -5.875 C 1.878906 -5.800781 1.695312 -5.707031 1.5625 -5.59375 Z M 1.5625 -5.59375 "/></g></g></g><g fill="#000000" fill-opacity="1"><g transform="translate(262.247079, 273.640499)"><g><path d="M 1.5625 -5.90625 L 1.5625 -3.6875 L 5.234375 -3.6875 L 5.234375 -2.953125 L 1.5625 -2.953125 L 1.5625 -0.71875 L 5.6875 -0.71875 L 5.6875 0 L 0.8125 0 L 0.8125 -6.625 L 5.6875 -6.625 L 5.6875 -5.90625 Z M 1.5625 -5.90625 "/></g></g></g><path stroke-linecap="butt" transform="matrix(0.75, 0, 0, 0.75, 56.372154, 270.640499)" fill="none" stroke-linejoin="miter" d="M -0.00141313 0.500168 L 58.889216 0.500168 " stroke="#000000" stroke-width="1" stroke-opacity="1" stroke-miterlimit="4"/><path stroke-linecap="butt" transform="matrix(0.75, 0, 0, 0.75, 271.025641, 270.640499)" fill="none" stroke-linejoin="miter" d="M 0.0022702 0.500168 L 58.887691 0.500168 " stroke="#000000" stroke-width="1" stroke-opacity="1" stroke-miterlimit="4"/><g fill="#f72585" fill-opacity="1"><g transform="translate(181.027346, 244.817094)"><g><path d="M 8.5 -10.734375 L 3.296875 -10.734375 L 0.15625 0 L 4.59375 0 L 4.90625 -1.53125 L 6.890625 -1.53125 L 7.203125 0 L 11.65625 0 C 11.65625 0 8.515625 -10.671875 8.5 -10.734375 Z M 5.359375 -3.984375 L 5.90625 -6.75 L 6.4375 -3.984375 Z M 5.359375 -3.984375 "/></g></g></g><g fill="#f72585" fill-opacity="1"><g transform="translate(194.890461, 244.817094)"><g><path d="M 9.96875 0 L 11.796875 -5.984375 L 11.796875 0 L 15.78125 0 L 15.78125 -10.734375 L 10.109375 -10.734375 L 8.359375 -4.90625 L 6.59375 -10.734375 L 0.921875 -10.734375 L 0.921875 0 L 4.90625 0 L 4.90625 -5.984375 L 6.75 0 Z M 9.96875 0 "/></g></g></g><g fill="#f72585" fill-opacity="1"><g transform="translate(213.654851, 244.817094)"><g><path d="M 5.515625 -10.890625 C 3.0625 -10.890625 0.921875 -10.734375 0.921875 -10.734375 L 0.921875 0 L 4.90625 0 L 4.90625 -3.453125 C 4.90625 -3.453125 5.671875 -3.375 6.28125 -3.375 C 8.890625 -3.375 10.421875 -4.90625 10.421875 -7.125 C 10.421875 -9.34375 8.890625 -10.890625 5.515625 -10.890625 Z M 4.90625 -6.28125 L 4.90625 -7.96875 L 5.515625 -7.96875 C 6.046875 -7.96875 6.4375 -7.59375 6.4375 -7.125 C 6.4375 -6.671875 6.046875 -6.28125 5.515625 -6.28125 Z M 4.90625 -6.28125 "/></g></g></g><g fill="#f72585" fill-opacity="1"><g transform="translate(226.59897, 244.817094)"><g><path d="M 4.90625 -10.734375 L 0.921875 -10.734375 L 0.921875 0 L 4.90625 0 Z M 4.90625 -10.734375 "/></g></g></g><g fill="#f72585" fill-opacity="1"><g transform="translate(234.488658, 244.817094)"><g><path d="M 0.3125 -10.734375 L 0.3125 -7.203125 L 3.21875 -7.203125 L 3.21875 0 L 7.203125 0 L 7.203125 -7.203125 L 10.109375 -7.203125 L 10.109375 -10.734375 Z M 0.3125 -10.734375 "/></g></g></g><g fill="#f72585" fill-opacity="1"><g transform="translate(246.973286, 244.817094)"><g><path d="M 8.5 -10.734375 L 3.296875 -10.734375 L 0.15625 0 L 4.59375 0 L 4.90625 -1.53125 L 6.890625 -1.53125 L 7.203125 0 L 11.65625 0 C 11.65625 0 8.515625 -10.671875 8.5 -10.734375 Z M 5.359375 -3.984375 L 5.90625 -6.75 L 6.4375 -3.984375 Z M 5.359375 -3.984375 "/></g></g></g><g fill="#f72585" fill-opacity="1"><g transform="translate(260.836401, 244.817094)"><g><path d="M 0.3125 -10.734375 L 0.3125 -7.203125 L 3.21875 -7.203125 L 3.21875 0 L 7.203125 0 L 7.203125 -7.203125 L 10.109375 -7.203125 L 10.109375 -10.734375 Z M 0.3125 -10.734375 "/></g></g></g><g fill="#f72585" fill-opacity="1"><g transform="translate(273.321028, 244.817094)"><g><path d="M 8.5 -10.734375 L 3.296875 -10.734375 L 0.15625 0 L 4.59375 0 L 4.90625 -1.53125 L 6.890625 -1.53125 L 7.203125 0 L 11.65625 0 C 11.65625 0 8.515625 -10.671875 8.5 -10.734375 Z M 5.359375 -3.984375 L 5.90625 -6.75 L 6.4375 -3.984375 Z M 5.359375 -3.984375 "/></g></g></g><g fill="#f72585" fill-opacity="1"><g transform="translate(287.184143, 244.817094)"><g><path d="M 0.921875 -10.734375 L 0.921875 0 L 4.90625 0 L 4.90625 -3.0625 L 8.125 -3.0625 L 8.125 -6.125 L 4.90625 -6.125 L 4.90625 -7.359375 L 8.890625 -7.359375 L 8.890625 -10.734375 Z M 0.921875 -10.734375 "/></g></g></g><g fill="#f72585" fill-opacity="1"><g transform="translate(298.443446, 244.817094)"><g><path d="M 4.90625 -10.734375 L 0.921875 -10.734375 L 0.921875 0 L 4.90625 0 Z M 4.90625 -10.734375 "/></g></g></g><g fill="#f72585" fill-opacity="1"><g transform="translate(306.33314, 244.817094)"><g><path d="M 11.34375 -10.734375 L 6.75 -10.734375 L 4.90625 -6.4375 L 4.90625 -10.734375 L 0.921875 -10.734375 L 0.921875 0 L 4.90625 0 L 4.90625 -4.296875 L 7.046875 0 L 11.65625 0 L 8.4375 -5.359375 Z M 11.34375 -10.734375 "/></g></g></g><g fill="#f72585" fill-opacity="1"><g transform="translate(319.889925, 244.817094)"><g><path d="M 8.5 -10.734375 L 3.296875 -10.734375 L 0.15625 0 L 4.59375 0 L 4.90625 -1.53125 L 6.890625 -1.53125 L 7.203125 0 L 11.65625 0 C 11.65625 0 8.515625 -10.671875 8.5 -10.734375 Z M 5.359375 -3.984375 L 5.90625 -6.75 L 6.4375 -3.984375 Z M 5.359375 -3.984375 "/></g></g></g></svg>